<mxfile host="app.diagrams.net" agent="Mozilla/5.0 (Windows NT 10.0; Win64; x64) AppleWebKit/537.36 (KHTML, like Gecko) Chrome/138.0.0.0 Safari/537.36 Edg/138.0.0.0" version="28.0.6">
  <diagram name="Page-1" id="aGXLr4pTxyx5Tp30c2cf">
    <mxGraphModel dx="1647" dy="1085" grid="0" gridSize="10" guides="1" tooltips="1" connect="1" arrows="1" fold="1" page="1" pageScale="1" pageWidth="850" pageHeight="1100" background="#ffffff" math="0" shadow="0">
      <root>
        <mxCell id="0" />
        <mxCell id="1" parent="0" />
        <mxCell id="4BSfuOzMK3iZWmj_oaOC-83" value="" style="rounded=0;whiteSpace=wrap;html=1;" vertex="1" parent="1">
          <mxGeometry x="8" y="122" width="835" height="928" as="geometry" />
        </mxCell>
        <mxCell id="4BSfuOzMK3iZWmj_oaOC-52" value="" style="rounded=0;whiteSpace=wrap;html=1;labelBackgroundColor=none;" vertex="1" parent="1">
          <mxGeometry x="42" y="301" width="779" height="690" as="geometry" />
        </mxCell>
        <mxCell id="4BSfuOzMK3iZWmj_oaOC-7" value="" style="group;labelBackgroundColor=none;" vertex="1" connectable="0" parent="1">
          <mxGeometry x="67" y="660" width="120" height="300" as="geometry" />
        </mxCell>
        <mxCell id="4BSfuOzMK3iZWmj_oaOC-2" value="Query Processor" style="rounded=0;whiteSpace=wrap;html=1;labelBackgroundColor=none;" vertex="1" parent="4BSfuOzMK3iZWmj_oaOC-7">
          <mxGeometry width="120" height="60" as="geometry" />
        </mxCell>
        <mxCell id="4BSfuOzMK3iZWmj_oaOC-3" value="Buffer Pool Manager" style="rounded=0;whiteSpace=wrap;html=1;labelBackgroundColor=none;" vertex="1" parent="4BSfuOzMK3iZWmj_oaOC-7">
          <mxGeometry y="180" width="120" height="60" as="geometry" />
        </mxCell>
        <mxCell id="4BSfuOzMK3iZWmj_oaOC-5" value="Query Optimizer" style="rounded=0;whiteSpace=wrap;html=1;labelBackgroundColor=none;" vertex="1" parent="4BSfuOzMK3iZWmj_oaOC-7">
          <mxGeometry y="60" width="120" height="60" as="geometry" />
        </mxCell>
        <mxCell id="4BSfuOzMK3iZWmj_oaOC-6" value="Disk Manager" style="rounded=0;whiteSpace=wrap;html=1;labelBackgroundColor=none;" vertex="1" parent="4BSfuOzMK3iZWmj_oaOC-7">
          <mxGeometry y="240" width="120" height="60" as="geometry" />
        </mxCell>
        <mxCell id="4BSfuOzMK3iZWmj_oaOC-4" value="Access Methods" style="rounded=0;whiteSpace=wrap;html=1;labelBackgroundColor=none;" vertex="1" parent="4BSfuOzMK3iZWmj_oaOC-7">
          <mxGeometry y="120" width="120" height="60" as="geometry" />
        </mxCell>
        <mxCell id="4BSfuOzMK3iZWmj_oaOC-62" value="" style="rounded=0;whiteSpace=wrap;html=1;labelBackgroundColor=none;" vertex="1" parent="1">
          <mxGeometry x="42" y="167" width="325" height="81" as="geometry" />
        </mxCell>
        <mxCell id="4BSfuOzMK3iZWmj_oaOC-63" value="Network Manager" style="text;html=1;align=center;verticalAlign=middle;resizable=0;points=[];autosize=1;strokeColor=none;fillColor=none;labelBackgroundColor=none;" vertex="1" parent="1">
          <mxGeometry x="42" y="139" width="113" height="26" as="geometry" />
        </mxCell>
        <mxCell id="4BSfuOzMK3iZWmj_oaOC-64" value="REPL" style="rounded=0;whiteSpace=wrap;html=1;labelBackgroundColor=none;" vertex="1" parent="1">
          <mxGeometry x="59.5" y="182.25" width="85" height="50.5" as="geometry" />
        </mxCell>
        <mxCell id="4BSfuOzMK3iZWmj_oaOC-67" value="Auth" style="rounded=0;whiteSpace=wrap;html=1;labelBackgroundColor=none;" vertex="1" parent="1">
          <mxGeometry x="162" y="182.25" width="84" height="50" as="geometry" />
        </mxCell>
        <mxCell id="4BSfuOzMK3iZWmj_oaOC-68" value="Scheduler" style="rounded=0;whiteSpace=wrap;html=1;labelBackgroundColor=none;" vertex="1" parent="1">
          <mxGeometry x="264" y="183" width="85.5" height="49" as="geometry" />
        </mxCell>
        <mxCell id="4BSfuOzMK3iZWmj_oaOC-80" value="VENUS DB" style="text;html=1;align=center;verticalAlign=middle;resizable=0;points=[];autosize=1;strokeColor=none;fillColor=none;strokeWidth=2;fontSize=80;labelBackgroundColor=none;" vertex="1" parent="1">
          <mxGeometry x="394" y="156" width="427" height="108" as="geometry" />
        </mxCell>
        <mxCell id="4BSfuOzMK3iZWmj_oaOC-54" value="Database Manager" style="text;html=1;align=center;verticalAlign=middle;resizable=0;points=[];autosize=1;strokeColor=none;fillColor=none;labelBackgroundColor=none;" vertex="1" parent="1">
          <mxGeometry x="42" y="281" width="120" height="26" as="geometry" />
        </mxCell>
        <mxCell id="4BSfuOzMK3iZWmj_oaOC-56" value="SQL" style="text;html=1;align=center;verticalAlign=middle;resizable=0;points=[];autosize=1;strokeColor=none;fillColor=none;labelBackgroundColor=none;" vertex="1" parent="1">
          <mxGeometry x="315" y="264" width="42" height="26" as="geometry" />
        </mxCell>
        <mxCell id="4BSfuOzMK3iZWmj_oaOC-20" value="Index" style="rounded=0;whiteSpace=wrap;html=1;labelBackgroundColor=none;" vertex="1" parent="1">
          <mxGeometry x="289.18181818181824" y="752" width="120.1848998459168" height="60" as="geometry" />
        </mxCell>
        <mxCell id="4BSfuOzMK3iZWmj_oaOC-21" value="Table Heap" style="rounded=0;whiteSpace=wrap;html=1;labelBackgroundColor=none;" vertex="1" parent="1">
          <mxGeometry x="506.51617873651776" y="752" width="120.1848998459168" height="60" as="geometry" />
        </mxCell>
        <mxCell id="4BSfuOzMK3iZWmj_oaOC-44" value="" style="edgeStyle=orthogonalEdgeStyle;rounded=0;orthogonalLoop=1;jettySize=auto;html=1;entryX=0;entryY=0.5;entryDx=0;entryDy=0;labelBackgroundColor=none;fontColor=default;" edge="1" parent="1" source="4BSfuOzMK3iZWmj_oaOC-22" target="4BSfuOzMK3iZWmj_oaOC-23">
          <mxGeometry relative="1" as="geometry">
            <mxPoint x="640.7226502311248" y="938.9999999999998" as="targetPoint" />
          </mxGeometry>
        </mxCell>
        <mxCell id="4BSfuOzMK3iZWmj_oaOC-22" value="Buffer pool manager" style="rounded=0;whiteSpace=wrap;html=1;labelBackgroundColor=none;" vertex="1" parent="1">
          <mxGeometry x="399.35130970724185" y="892" width="120.1848998459168" height="60" as="geometry" />
        </mxCell>
        <mxCell id="4BSfuOzMK3iZWmj_oaOC-23" value="Disk manager" style="rounded=0;whiteSpace=wrap;html=1;labelBackgroundColor=none;" vertex="1" parent="1">
          <mxGeometry x="602.6640986132511" y="892" width="120.1848998459168" height="60" as="geometry" />
        </mxCell>
        <mxCell id="4BSfuOzMK3iZWmj_oaOC-32" value="" style="group;labelBackgroundColor=none;" vertex="1" connectable="0" parent="1">
          <mxGeometry x="203.04930662557786" y="567" width="512.788906009245" height="96" as="geometry" />
        </mxCell>
        <mxCell id="4BSfuOzMK3iZWmj_oaOC-12" value="" style="rounded=0;whiteSpace=wrap;html=1;labelBackgroundColor=none;" vertex="1" parent="4BSfuOzMK3iZWmj_oaOC-32">
          <mxGeometry width="512.788906009245" height="96" as="geometry" />
        </mxCell>
        <mxCell id="4BSfuOzMK3iZWmj_oaOC-28" value="Aggr" style="rounded=0;whiteSpace=wrap;html=1;labelBackgroundColor=none;" vertex="1" parent="4BSfuOzMK3iZWmj_oaOC-32">
          <mxGeometry x="385.5932203389831" y="21" width="98.15100154083206" height="53" as="geometry" />
        </mxCell>
        <mxCell id="4BSfuOzMK3iZWmj_oaOC-29" value="Index" style="rounded=0;whiteSpace=wrap;html=1;labelBackgroundColor=none;" vertex="1" parent="4BSfuOzMK3iZWmj_oaOC-32">
          <mxGeometry x="264.40677966101697" y="21" width="98.15100154083206" height="53" as="geometry" />
        </mxCell>
        <mxCell id="4BSfuOzMK3iZWmj_oaOC-30" value="Join" style="rounded=0;whiteSpace=wrap;html=1;labelBackgroundColor=none;" vertex="1" parent="4BSfuOzMK3iZWmj_oaOC-32">
          <mxGeometry x="143.22033898305085" y="21" width="98.15100154083206" height="53" as="geometry" />
        </mxCell>
        <mxCell id="4BSfuOzMK3iZWmj_oaOC-31" value="Scan" style="rounded=0;whiteSpace=wrap;html=1;labelBackgroundColor=none;" vertex="1" parent="4BSfuOzMK3iZWmj_oaOC-32">
          <mxGeometry x="22.033898305084747" y="21" width="98.15100154083206" height="53" as="geometry" />
        </mxCell>
        <mxCell id="4BSfuOzMK3iZWmj_oaOC-35" value="" style="group;labelBackgroundColor=none;" vertex="1" connectable="0" parent="1">
          <mxGeometry x="285.1756548536209" y="342" width="267.4114021571649" height="151" as="geometry" />
        </mxCell>
        <mxCell id="4BSfuOzMK3iZWmj_oaOC-36" style="edgeStyle=orthogonalEdgeStyle;rounded=0;orthogonalLoop=1;jettySize=auto;html=1;exitX=1;exitY=0.5;exitDx=0;exitDy=0;entryX=0;entryY=0.5;entryDx=0;entryDy=0;labelBackgroundColor=none;fontColor=default;" edge="1" parent="4BSfuOzMK3iZWmj_oaOC-35" source="4BSfuOzMK3iZWmj_oaOC-8" target="4BSfuOzMK3iZWmj_oaOC-26">
          <mxGeometry relative="1" as="geometry" />
        </mxCell>
        <mxCell id="4BSfuOzMK3iZWmj_oaOC-8" value="Parser" style="rounded=0;whiteSpace=wrap;html=1;labelBackgroundColor=none;" vertex="1" parent="4BSfuOzMK3iZWmj_oaOC-35">
          <mxGeometry width="98.15100154083206" height="53" as="geometry" />
        </mxCell>
        <mxCell id="4BSfuOzMK3iZWmj_oaOC-38" value="" style="edgeStyle=orthogonalEdgeStyle;rounded=0;orthogonalLoop=1;jettySize=auto;html=1;labelBackgroundColor=none;fontColor=default;" edge="1" parent="4BSfuOzMK3iZWmj_oaOC-35" source="4BSfuOzMK3iZWmj_oaOC-25" target="4BSfuOzMK3iZWmj_oaOC-27">
          <mxGeometry relative="1" as="geometry" />
        </mxCell>
        <mxCell id="4BSfuOzMK3iZWmj_oaOC-25" value="Planner" style="rounded=0;whiteSpace=wrap;html=1;labelBackgroundColor=none;" vertex="1" parent="4BSfuOzMK3iZWmj_oaOC-35">
          <mxGeometry x="169.26040061633282" y="98" width="98.15100154083206" height="53" as="geometry" />
        </mxCell>
        <mxCell id="4BSfuOzMK3iZWmj_oaOC-37" value="" style="edgeStyle=orthogonalEdgeStyle;rounded=0;orthogonalLoop=1;jettySize=auto;html=1;labelBackgroundColor=none;fontColor=default;" edge="1" parent="4BSfuOzMK3iZWmj_oaOC-35" source="4BSfuOzMK3iZWmj_oaOC-26" target="4BSfuOzMK3iZWmj_oaOC-25">
          <mxGeometry relative="1" as="geometry" />
        </mxCell>
        <mxCell id="4BSfuOzMK3iZWmj_oaOC-26" value="Binder" style="rounded=0;whiteSpace=wrap;html=1;labelBackgroundColor=none;" vertex="1" parent="4BSfuOzMK3iZWmj_oaOC-35">
          <mxGeometry x="169.26040061633282" width="98.15100154083206" height="53" as="geometry" />
        </mxCell>
        <mxCell id="4BSfuOzMK3iZWmj_oaOC-27" value="Optimizer" style="rounded=0;whiteSpace=wrap;html=1;labelBackgroundColor=none;" vertex="1" parent="4BSfuOzMK3iZWmj_oaOC-35">
          <mxGeometry y="98" width="98.15100154083206" height="53" as="geometry" />
        </mxCell>
        <mxCell id="4BSfuOzMK3iZWmj_oaOC-41" value="" style="endArrow=classic;html=1;rounded=0;exitX=0.5;exitY=1;exitDx=0;exitDy=0;entryX=0.5;entryY=0;entryDx=0;entryDy=0;labelBackgroundColor=none;fontColor=default;" edge="1" parent="1" source="4BSfuOzMK3iZWmj_oaOC-27" target="4BSfuOzMK3iZWmj_oaOC-12">
          <mxGeometry width="50" height="50" relative="1" as="geometry">
            <mxPoint x="450.42989214175657" y="551" as="sourcePoint" />
            <mxPoint x="500.5069337442219" y="501" as="targetPoint" />
          </mxGeometry>
        </mxCell>
        <mxCell id="4BSfuOzMK3iZWmj_oaOC-42" value="Executor" style="text;html=1;align=center;verticalAlign=middle;resizable=0;points=[];autosize=1;strokeColor=none;fillColor=none;labelBackgroundColor=none;" vertex="1" parent="1">
          <mxGeometry x="728.3574730354392" y="602" width="65" height="26" as="geometry" />
        </mxCell>
        <mxCell id="4BSfuOzMK3iZWmj_oaOC-45" value="" style="endArrow=classic;html=1;rounded=0;exitX=0.5;exitY=1;exitDx=0;exitDy=0;entryX=1;entryY=0;entryDx=0;entryDy=0;labelBackgroundColor=none;fontColor=default;" edge="1" parent="1" source="4BSfuOzMK3iZWmj_oaOC-21" target="4BSfuOzMK3iZWmj_oaOC-22">
          <mxGeometry width="50" height="50" relative="1" as="geometry">
            <mxPoint x="359.2896764252696" y="679" as="sourcePoint" />
            <mxPoint x="478.47303543913716" y="909" as="targetPoint" />
          </mxGeometry>
        </mxCell>
        <mxCell id="4BSfuOzMK3iZWmj_oaOC-46" value="" style="endArrow=classic;html=1;rounded=0;exitX=0.5;exitY=1;exitDx=0;exitDy=0;entryX=0;entryY=0;entryDx=0;entryDy=0;labelBackgroundColor=none;fontColor=default;" edge="1" parent="1" source="4BSfuOzMK3iZWmj_oaOC-20" target="4BSfuOzMK3iZWmj_oaOC-22">
          <mxGeometry width="50" height="50" relative="1" as="geometry">
            <mxPoint x="359.2896764252696" y="679" as="sourcePoint" />
            <mxPoint x="409.36671802773503" y="629" as="targetPoint" />
          </mxGeometry>
        </mxCell>
        <mxCell id="4BSfuOzMK3iZWmj_oaOC-47" value="" style="endArrow=classic;html=1;rounded=0;entryX=0.5;entryY=0;entryDx=0;entryDy=0;labelBackgroundColor=none;fontColor=default;" edge="1" parent="1" target="4BSfuOzMK3iZWmj_oaOC-21">
          <mxGeometry width="50" height="50" relative="1" as="geometry">
            <mxPoint x="460.44530046224963" y="664" as="sourcePoint" />
            <mxPoint x="598.657935285054" y="750" as="targetPoint" />
          </mxGeometry>
        </mxCell>
        <mxCell id="4BSfuOzMK3iZWmj_oaOC-48" value="" style="endArrow=classic;html=1;rounded=0;exitX=0.5;exitY=1;exitDx=0;exitDy=0;entryX=0.5;entryY=0;entryDx=0;entryDy=0;labelBackgroundColor=none;fontColor=default;" edge="1" parent="1" source="4BSfuOzMK3iZWmj_oaOC-12" target="4BSfuOzMK3iZWmj_oaOC-20">
          <mxGeometry width="50" height="50" relative="1" as="geometry">
            <mxPoint x="359.2896764252696" y="679" as="sourcePoint" />
            <mxPoint x="409.36671802773503" y="629" as="targetPoint" />
          </mxGeometry>
        </mxCell>
        <mxCell id="4BSfuOzMK3iZWmj_oaOC-51" value="" style="group;labelBackgroundColor=none;" vertex="1" connectable="0" parent="1">
          <mxGeometry x="723.8505392912173" y="742" width="62.09553158705701" height="78" as="geometry" />
        </mxCell>
        <mxCell id="4BSfuOzMK3iZWmj_oaOC-24" value="" style="image;aspect=fixed;perimeter=ellipsePerimeter;html=1;align=center;shadow=0;dashed=0;spacingTop=3;image=img/lib/active_directory/database.svg;labelBackgroundColor=none;" vertex="1" parent="4BSfuOzMK3iZWmj_oaOC-51">
          <mxGeometry width="62" height="45.88" as="geometry" />
        </mxCell>
        <mxCell id="4BSfuOzMK3iZWmj_oaOC-50" value="Catalog" style="text;html=1;align=center;verticalAlign=middle;resizable=0;points=[];autosize=1;strokeColor=none;fillColor=none;labelBackgroundColor=none;" vertex="1" parent="4BSfuOzMK3iZWmj_oaOC-51">
          <mxGeometry x="1.50231124807396" y="52" width="59" height="26" as="geometry" />
        </mxCell>
        <mxCell id="4BSfuOzMK3iZWmj_oaOC-60" value="" style="endArrow=classic;html=1;rounded=0;exitX=0.5;exitY=1;exitDx=0;exitDy=0;entryX=0.006;entryY=-0.004;entryDx=0;entryDy=0;entryPerimeter=0;labelBackgroundColor=none;fontColor=default;" edge="1" parent="1" source="4BSfuOzMK3iZWmj_oaOC-12" target="4BSfuOzMK3iZWmj_oaOC-24">
          <mxGeometry width="50" height="50" relative="1" as="geometry">
            <mxPoint x="462.44838212634824" y="687" as="sourcePoint" />
            <mxPoint x="519.5362095531586" y="630" as="targetPoint" />
          </mxGeometry>
        </mxCell>
        <mxCell id="4BSfuOzMK3iZWmj_oaOC-55" value="" style="endArrow=classic;html=1;rounded=0;exitX=0.467;exitY=0.967;exitDx=0;exitDy=0;exitPerimeter=0;labelBackgroundColor=none;fontColor=default;" edge="1" parent="1" source="4BSfuOzMK3iZWmj_oaOC-56">
          <mxGeometry width="50" height="50" relative="1" as="geometry">
            <mxPoint x="335" y="269" as="sourcePoint" />
            <mxPoint x="335" y="343" as="targetPoint" />
          </mxGeometry>
        </mxCell>
      </root>
    </mxGraphModel>
  </diagram>
</mxfile>
